<?xml version="1.0" standalone="no"?>
<!DOCTYPE svg PUBLIC "-//W3C//DTD SVG 20010904//EN"
 "http://www.w3.org/TR/2001/REC-SVG-20010904/DTD/svg10.dtd">
<svg version="1.0" xmlns="http://www.w3.org/2000/svg"
 width="140.000000pt" height="140.000000pt" viewBox="0 0 140.000000 140.000000"
 preserveAspectRatio="xMidYMid meet">
<metadata>
Created by potrace 1.16, written by Peter Selinger 2001-2019
</metadata>
<g transform="translate(0.000000,140.000000) scale(0.100000,-0.100000)"
fill="#000000" stroke="none">
<path fill="#d30000" d="M724 1386 c-17 -8 -41 -30 -53 -50 -33 -53 -67 -76 -115 -76 -89 -1
-166 -63 -216 -175 -59 -131 -83 -296 -78 -555 l3 -175 385 0 385 0 3 53 c2
29 -4 77 -13 107 -13 45 -26 63 -80 112 -56 51 -155 167 -155 183 0 3 37 4 82
3 66 -2 93 -7 132 -28 76 -39 101 -34 163 30 43 44 53 61 53 89 0 19 -7 41
-15 50 -8 8 -98 81 -200 161 -158 126 -186 153 -199 189 -9 22 -17 52 -18 66
-4 30 -22 34 -64 16z"/>
<path fill="#d30000" d="M287 269 c-16 -10 -96 -157 -111 -206 -5 -15 -1 -28 13 -42 21 -21
31 -21 469 -21 554 0 519 -14 426 172 -24 48 -53 92 -63 98 -27 14 -709 13
-734 -1z"/>
</g>
</svg>
